<svg width="13" height="14" viewBox="0 0 13 14" fill="none" xmlns="http://www.w3.org/2000/svg">
<path id="Shape" fill-rule="evenodd" clip-rule="evenodd" d="M9.59762 9.28631L12.8023 12.7518C13.0735 13.045 13.0645 13.5124 12.7827 13.7943C12.6501 13.927 12.4754 14 12.2913 14C12.0968 14 11.9152 13.9196 11.7803 13.7739L8.55121 10.2821C7.63432 10.9521 6.5619 11.305 5.43654 11.305C2.43888 11.305 0 8.76923 0 5.65249C0 2.53576 2.43888 0 5.43654 0C8.4342 0 10.8731 2.53576 10.8731 5.65249C10.8731 6.98648 10.4216 8.26788 9.59762 9.28631ZM9.45485 5.65249C9.45485 3.34873 7.65229 1.47456 5.43654 1.47456C3.2208 1.47456 1.41823 3.34873 1.41823 5.65249C1.41823 7.95625 3.2208 9.83043 5.43654 9.83043C7.65229 9.83043 9.45485 7.95625 9.45485 5.65249Z" fill="white"/>
</svg>
